<svg width="264" height="247" viewBox="0 0 264 247" fill="none" xmlns="http://www.w3.org/2000/svg">
<rect x="1" y="1" width="262" height="245" rx="24" fill="#222831" stroke="black" stroke-width="2"/>
<path d="M101 158H79.4545V88.1818H101.955C108.727 88.1818 114.523 89.5795 119.341 92.375C124.159 95.1477 127.852 99.1364 130.42 104.341C132.989 109.523 134.273 115.727 134.273 122.955C134.273 130.227 132.977 136.489 130.386 141.739C127.795 146.966 124.023 150.989 119.068 153.807C114.114 156.602 108.091 158 101 158ZM87.9091 150.5H100.455C106.227 150.5 111.011 149.386 114.807 147.159C118.602 144.932 121.432 141.761 123.295 137.648C125.159 133.534 126.091 128.636 126.091 122.955C126.091 117.318 125.17 112.466 123.33 108.398C121.489 104.307 118.739 101.17 115.08 98.9886C111.42 96.7841 106.864 95.6818 101.409 95.6818H87.9091V150.5ZM168.636 159.091C163.727 159.091 159.5 157.932 155.955 155.614C152.409 153.295 149.682 150.102 147.773 146.034C145.864 141.966 144.909 137.318 144.909 132.091C144.909 126.773 145.886 122.08 147.841 118.011C149.818 113.92 152.568 110.727 156.091 108.432C159.636 106.114 163.773 104.955 168.5 104.955C172.182 104.955 175.5 105.636 178.455 107C181.409 108.364 183.83 110.273 185.716 112.727C187.602 115.182 188.773 118.045 189.227 121.318H181.182C180.568 118.932 179.205 116.818 177.091 114.977C175 113.114 172.182 112.182 168.636 112.182C165.5 112.182 162.75 113 160.386 114.636C158.045 116.25 156.216 118.534 154.898 121.489C153.602 124.42 152.955 127.864 152.955 131.818C152.955 135.864 153.591 139.386 154.864 142.386C156.159 145.386 157.977 147.716 160.318 149.375C162.682 151.034 165.455 151.864 168.636 151.864C170.727 151.864 172.625 151.5 174.33 150.773C176.034 150.045 177.477 149 178.659 147.636C179.841 146.273 180.682 144.636 181.182 142.727H189.227C188.773 145.818 187.648 148.602 185.852 151.08C184.08 153.534 181.727 155.489 178.795 156.943C175.886 158.375 172.5 159.091 168.636 159.091Z" fill="#22c55e"/>
<path d="M202.807 40V38.4659L208.568 32.1591C209.244 31.4205 209.801 30.7784 210.239 30.233C210.676 29.6818 211 29.1648 211.21 28.6818C211.426 28.1932 211.534 27.6818 211.534 27.1477C211.534 26.5341 211.386 26.0028 211.091 25.554C210.801 25.1051 210.403 24.7585 209.898 24.5142C209.392 24.2699 208.824 24.1477 208.193 24.1477C207.523 24.1477 206.938 24.2869 206.438 24.5653C205.943 24.8381 205.56 25.2216 205.287 25.7159C205.02 26.2102 204.886 26.7898 204.886 27.4545H202.875C202.875 26.4318 203.111 25.5341 203.582 24.7614C204.054 23.9886 204.696 23.3864 205.509 22.9545C206.327 22.5227 207.244 22.3068 208.261 22.3068C209.284 22.3068 210.19 22.5227 210.98 22.9545C211.77 23.3864 212.389 23.9687 212.838 24.7017C213.287 25.4347 213.511 26.25 213.511 27.1477C213.511 27.7898 213.395 28.4176 213.162 29.0312C212.935 29.6392 212.537 30.3182 211.969 31.0682C211.406 31.8125 210.625 32.7216 209.625 33.7955L205.705 37.9886V38.125H213.818V40H202.807ZM222.793 40.2386C221.793 40.2386 220.892 40.0398 220.091 39.642C219.29 39.2443 218.648 38.6989 218.165 38.0057C217.682 37.3125 217.418 36.5227 217.372 35.6364H219.418C219.497 36.4261 219.855 37.0795 220.491 37.5966C221.134 38.108 221.901 38.3636 222.793 38.3636C223.509 38.3636 224.145 38.196 224.702 37.8608C225.264 37.5256 225.705 37.0653 226.023 36.4801C226.347 35.8892 226.509 35.2216 226.509 34.4773C226.509 33.7159 226.341 33.0369 226.006 32.4403C225.676 31.8381 225.222 31.3636 224.642 31.017C224.063 30.6705 223.401 30.4943 222.656 30.4886C222.122 30.483 221.574 30.5653 221.011 30.7358C220.449 30.9006 219.986 31.1136 219.622 31.375L217.645 31.1364L218.702 22.5455H227.77V24.4205H220.474L219.861 29.5682H219.963C220.321 29.2841 220.77 29.0483 221.31 28.8608C221.849 28.6733 222.412 28.5795 222.997 28.5795C224.065 28.5795 225.017 28.8352 225.852 29.3466C226.693 29.8523 227.352 30.5455 227.83 31.4261C228.312 32.3068 228.554 33.3125 228.554 34.4432C228.554 35.5568 228.304 36.5511 227.804 37.4261C227.31 38.2955 226.628 38.983 225.759 39.4886C224.889 39.9886 223.901 40.2386 222.793 40.2386ZM237.735 40.2386C237.019 40.2273 236.303 40.0909 235.587 39.8295C234.871 39.5682 234.218 39.1278 233.627 38.5085C233.036 37.8835 232.562 37.0398 232.204 35.9773C231.846 34.9091 231.667 33.5682 231.667 31.9545C231.667 30.4091 231.812 29.0398 232.102 27.8466C232.391 26.6477 232.812 25.6392 233.363 24.821C233.914 23.9972 234.579 23.3722 235.357 22.946C236.141 22.5199 237.025 22.3068 238.008 22.3068C238.985 22.3068 239.854 22.5028 240.616 22.8949C241.383 23.2812 242.008 23.821 242.491 24.5142C242.974 25.2074 243.286 26.0057 243.428 26.9091H241.349C241.156 26.125 240.781 25.4744 240.224 24.9574C239.667 24.4403 238.928 24.1818 238.008 24.1818C236.656 24.1818 235.59 24.7699 234.812 25.946C234.039 27.1222 233.65 28.7727 233.644 30.8977H233.781C234.099 30.4148 234.477 30.0028 234.914 29.6619C235.357 29.3153 235.846 29.0483 236.38 28.8608C236.914 28.6733 237.479 28.5795 238.076 28.5795C239.076 28.5795 239.991 28.8295 240.82 29.3295C241.65 29.8239 242.315 30.5085 242.815 31.3835C243.315 32.2528 243.565 33.25 243.565 34.375C243.565 35.4545 243.323 36.4432 242.84 37.3409C242.357 38.233 241.678 38.9432 240.803 39.4716C239.934 39.9943 238.911 40.25 237.735 40.2386ZM237.735 38.3636C238.451 38.3636 239.093 38.1847 239.661 37.8267C240.235 37.4687 240.687 36.9886 241.016 36.3864C241.352 35.7841 241.519 35.1136 241.519 34.375C241.519 33.6534 241.357 32.9972 241.033 32.4062C240.715 31.8097 240.275 31.3352 239.712 30.983C239.156 30.6307 238.519 30.4545 237.803 30.4545C237.263 30.4545 236.761 30.5625 236.295 30.7784C235.829 30.9886 235.42 31.2784 235.067 31.6477C234.721 32.017 234.448 32.4403 234.249 32.9176C234.05 33.3892 233.951 33.8864 233.951 34.4091C233.951 35.1023 234.113 35.75 234.437 36.3523C234.766 36.9545 235.215 37.4403 235.783 37.8097C236.357 38.179 237.008 38.3636 237.735 38.3636Z" fill="#22c55e"/>
<path d="M79.5 220H74.1136V202.545H79.7386C81.4318 202.545 82.8807 202.895 84.0852 203.594C85.2898 204.287 86.2131 205.284 86.8551 206.585C87.4972 207.881 87.8182 209.432 87.8182 211.239C87.8182 213.057 87.4943 214.622 86.8466 215.935C86.1989 217.241 85.2557 218.247 84.017 218.952C82.7784 219.651 81.2727 220 79.5 220ZM76.2273 218.125H79.3636C80.8068 218.125 82.0028 217.847 82.9517 217.29C83.9006 216.733 84.608 215.94 85.0739 214.912C85.5398 213.884 85.7727 212.659 85.7727 211.239C85.7727 209.83 85.5426 208.616 85.0824 207.599C84.6222 206.577 83.9347 205.793 83.0199 205.247C82.1051 204.696 80.9659 204.42 79.6023 204.42H76.2273V218.125ZM96.5795 220.273C95.3182 220.273 94.2301 219.994 93.3153 219.438C92.4062 218.875 91.7045 218.091 91.2102 217.085C90.7216 216.074 90.4773 214.898 90.4773 213.557C90.4773 212.216 90.7216 211.034 91.2102 210.011C91.7045 208.983 92.392 208.182 93.2727 207.608C94.1591 207.028 95.1932 206.739 96.375 206.739C97.0568 206.739 97.7301 206.852 98.3949 207.08C99.0597 207.307 99.6648 207.676 100.21 208.188C100.756 208.693 101.19 209.364 101.514 210.199C101.838 211.034 102 212.062 102 213.284V214.136H91.9091V212.398H99.9545C99.9545 211.659 99.8068 211 99.5114 210.42C99.2216 209.841 98.8068 209.384 98.267 209.048C97.733 208.713 97.1023 208.545 96.375 208.545C95.5739 208.545 94.8807 208.744 94.2955 209.142C93.7159 209.534 93.2699 210.045 92.9574 210.676C92.6449 211.307 92.4886 211.983 92.4886 212.705V213.864C92.4886 214.852 92.6591 215.69 93 216.378C93.3466 217.06 93.8267 217.58 94.4403 217.938C95.054 218.29 95.767 218.466 96.5795 218.466C97.108 218.466 97.5852 218.392 98.0114 218.244C98.4432 218.091 98.8153 217.864 99.1278 217.562C99.4403 217.256 99.6818 216.875 99.8523 216.42L101.795 216.966C101.591 217.625 101.247 218.205 100.764 218.705C100.281 219.199 99.6847 219.585 98.9744 219.864C98.2642 220.136 97.4659 220.273 96.5795 220.273ZM110.378 220.273C109.151 220.273 108.094 219.983 107.207 219.403C106.321 218.824 105.639 218.026 105.162 217.009C104.685 215.991 104.446 214.83 104.446 213.523C104.446 212.193 104.69 211.02 105.179 210.003C105.673 208.98 106.361 208.182 107.241 207.608C108.128 207.028 109.162 206.739 110.344 206.739C111.264 206.739 112.094 206.909 112.832 207.25C113.571 207.591 114.176 208.068 114.648 208.682C115.119 209.295 115.412 210.011 115.526 210.83H113.514C113.361 210.233 113.02 209.705 112.491 209.244C111.969 208.778 111.264 208.545 110.378 208.545C109.594 208.545 108.906 208.75 108.315 209.159C107.73 209.562 107.273 210.134 106.943 210.872C106.619 211.605 106.457 212.466 106.457 213.455C106.457 214.466 106.616 215.347 106.935 216.097C107.259 216.847 107.713 217.429 108.298 217.844C108.889 218.259 109.582 218.466 110.378 218.466C110.901 218.466 111.375 218.375 111.801 218.193C112.227 218.011 112.588 217.75 112.884 217.409C113.179 217.068 113.389 216.659 113.514 216.182H115.526C115.412 216.955 115.131 217.651 114.682 218.27C114.239 218.884 113.651 219.372 112.918 219.736C112.19 220.094 111.344 220.273 110.378 220.273ZM118.466 220V206.909H120.409V208.886H120.545C120.784 208.239 121.216 207.713 121.841 207.31C122.466 206.906 123.17 206.705 123.955 206.705C124.102 206.705 124.287 206.707 124.509 206.713C124.73 206.719 124.898 206.727 125.011 206.739V208.784C124.943 208.767 124.787 208.741 124.543 208.707C124.304 208.668 124.051 208.648 123.784 208.648C123.148 208.648 122.58 208.781 122.08 209.048C121.585 209.31 121.193 209.673 120.903 210.139C120.619 210.599 120.477 211.125 120.477 211.716V220H118.466ZM129.089 224.909C128.749 224.909 128.445 224.881 128.178 224.824C127.911 224.773 127.726 224.722 127.624 224.67L128.135 222.898C128.624 223.023 129.055 223.068 129.43 223.034C129.805 223 130.138 222.832 130.428 222.531C130.723 222.236 130.993 221.756 131.237 221.091L131.612 220.068L126.771 206.909H128.953L132.567 217.341H132.703L136.317 206.909H138.499L132.942 221.909C132.692 222.585 132.382 223.145 132.013 223.588C131.643 224.037 131.214 224.369 130.726 224.585C130.243 224.801 129.697 224.909 129.089 224.909ZM141.153 224.909V206.909H143.097V208.989H143.335C143.483 208.761 143.688 208.472 143.949 208.119C144.216 207.761 144.597 207.443 145.091 207.165C145.591 206.881 146.267 206.739 147.119 206.739C148.222 206.739 149.193 207.014 150.034 207.565C150.875 208.116 151.531 208.898 152.003 209.909C152.474 210.92 152.71 212.114 152.71 213.489C152.71 214.875 152.474 216.077 152.003 217.094C151.531 218.105 150.878 218.889 150.043 219.446C149.207 219.997 148.244 220.273 147.153 220.273C146.313 220.273 145.639 220.134 145.134 219.855C144.628 219.571 144.239 219.25 143.966 218.892C143.693 218.528 143.483 218.227 143.335 217.989H143.165V224.909H141.153ZM143.131 213.455C143.131 214.443 143.276 215.315 143.565 216.071C143.855 216.821 144.278 217.409 144.835 217.835C145.392 218.256 146.074 218.466 146.881 218.466C147.722 218.466 148.423 218.244 148.986 217.801C149.554 217.352 149.98 216.75 150.264 215.994C150.554 215.233 150.699 214.386 150.699 213.455C150.699 212.534 150.557 211.705 150.273 210.966C149.994 210.222 149.571 209.634 149.003 209.202C148.44 208.764 147.733 208.545 146.881 208.545C146.063 208.545 145.375 208.753 144.818 209.168C144.261 209.577 143.841 210.151 143.557 210.889C143.273 211.622 143.131 212.477 143.131 213.455ZM161.472 206.909V208.614H154.688V206.909H161.472ZM156.665 203.773H158.676V216.25C158.676 216.818 158.759 217.244 158.923 217.528C159.094 217.807 159.31 217.994 159.571 218.091C159.838 218.182 160.119 218.227 160.415 218.227C160.636 218.227 160.818 218.216 160.96 218.193C161.102 218.165 161.216 218.142 161.301 218.125L161.71 219.932C161.574 219.983 161.384 220.034 161.139 220.085C160.895 220.142 160.585 220.17 160.21 220.17C159.642 220.17 159.085 220.048 158.54 219.804C158 219.56 157.551 219.188 157.193 218.688C156.841 218.188 156.665 217.557 156.665 216.795V203.773ZM169.845 220.273C168.584 220.273 167.496 219.994 166.581 219.438C165.672 218.875 164.97 218.091 164.476 217.085C163.987 216.074 163.743 214.898 163.743 213.557C163.743 212.216 163.987 211.034 164.476 210.011C164.97 208.983 165.658 208.182 166.538 207.608C167.425 207.028 168.459 206.739 169.641 206.739C170.322 206.739 170.996 206.852 171.661 207.08C172.325 207.307 172.93 207.676 173.476 208.188C174.021 208.693 174.456 209.364 174.78 210.199C175.104 211.034 175.266 212.062 175.266 213.284V214.136H165.175V212.398H173.22C173.22 211.659 173.072 211 172.777 210.42C172.487 209.841 172.072 209.384 171.533 209.048C170.999 208.713 170.368 208.545 169.641 208.545C168.839 208.545 168.146 208.744 167.561 209.142C166.982 209.534 166.536 210.045 166.223 210.676C165.911 211.307 165.754 211.983 165.754 212.705V213.864C165.754 214.852 165.925 215.69 166.266 216.378C166.612 217.06 167.092 217.58 167.706 217.938C168.32 218.29 169.033 218.466 169.845 218.466C170.374 218.466 170.851 218.392 171.277 218.244C171.709 218.091 172.081 217.864 172.393 217.562C172.706 217.256 172.947 216.875 173.118 216.42L175.061 216.966C174.857 217.625 174.513 218.205 174.03 218.705C173.547 219.199 172.95 219.585 172.24 219.864C171.53 220.136 170.732 220.273 169.845 220.273ZM183.268 220.273C182.178 220.273 181.214 219.997 180.379 219.446C179.544 218.889 178.891 218.105 178.419 217.094C177.947 216.077 177.712 214.875 177.712 213.489C177.712 212.114 177.947 210.92 178.419 209.909C178.891 208.898 179.547 208.116 180.388 207.565C181.229 207.014 182.2 206.739 183.303 206.739C184.155 206.739 184.828 206.881 185.322 207.165C185.822 207.443 186.203 207.761 186.464 208.119C186.732 208.472 186.939 208.761 187.087 208.989H187.257V202.545H189.268V220H187.325V217.989H187.087C186.939 218.227 186.729 218.528 186.456 218.892C186.183 219.25 185.794 219.571 185.288 219.855C184.783 220.134 184.109 220.273 183.268 220.273ZM183.541 218.466C184.348 218.466 185.03 218.256 185.587 217.835C186.143 217.409 186.567 216.821 186.857 216.071C187.146 215.315 187.291 214.443 187.291 213.455C187.291 212.477 187.149 211.622 186.865 210.889C186.581 210.151 186.161 209.577 185.604 209.168C185.047 208.753 184.359 208.545 183.541 208.545C182.689 208.545 181.979 208.764 181.411 209.202C180.848 209.634 180.425 210.222 180.141 210.966C179.862 211.705 179.723 212.534 179.723 213.455C179.723 214.386 179.865 215.233 180.149 215.994C180.439 216.75 180.865 217.352 181.428 217.801C181.996 218.244 182.7 218.466 183.541 218.466Z" fill="#22c55e"/>
</svg>
